HIERARCHY
ROOT Hips
{
  OFFSET -187.679 86.5976 -156.378
  CHANNELS 6 Xposition Yposition Zposition Zrotation Xrotation Yrotation
  JOINT LeftUpLeg
  {
    OFFSET 8.64259 1.95398 -2.38835
    CHANNELS 3 Zrotation Xrotation Yrotation
    JOINT LeftLeg
    {
      OFFSET 43.7702 0 0
      CHANNELS 3 Zrotation Xrotation Yrotation
      JOINT LeftFoot
      {
        OFFSET 40.6238 0 0
        CHANNELS 3 Zrotation Xrotation Yrotation
        JOINT LeftToeBase
        {
          OFFSET 12.7242 0 0
          CHANNELS 3 Zrotation Xrotation Yrotation
          End Site
          {
            OFFSET 0 0 0
          }
        }
      }
    }
  }
  JOINT RightUpLeg
  {
    OFFSET -8.2249 1.95398 -2.59336
    CHANNELS 3 Zrotation Xrotation Yrotation
    JOINT RightLeg
    {
      OFFSET 43.5653 0 0
      CHANNELS 3 Zrotation Xrotation Yrotation
      JOINT RightFoot
      {
        OFFSET 40.6238 0 0
        CHANNELS 3 Zrotation Xrotation Yrotation
        JOINT RightToeBase
        {
          OFFSET 12.7242 0 0
          CHANNELS 3 Zrotation Xrotation Yrotation
          End Site
          {
            OFFSET 0 0 0
          }
        }
      }
    }
  }
  JOINT Spine
  {
    OFFSET 0.165834 0.87714 6.61349
    CHANNELS 3 Zrotation Xrotation Yrotation
    JOINT Spine1
    {
      OFFSET 7.38963 1.71661e-005 0
      CHANNELS 3 Zrotation Xrotation Yrotation
      JOINT Spine2
      {
        OFFSET 11.9445 1.14441e-005 0
        CHANNELS 3 Zrotation Xrotation Yrotation
        JOINT Spine3
        {
          OFFSET 14.7254 4.19617e-005 0
          CHANNELS 3 Zrotation Xrotation Yrotation
          JOINT Spine4
          {
            OFFSET 10.9679 0 0
            CHANNELS 3 Zrotation Xrotation Yrotation
            JOINT RightShoulder
            {
              OFFSET 2.46616 -1.6653 3.69651
              CHANNELS 3 Zrotation Xrotation Yrotation
              JOINT RightArm
              {
                OFFSET 13.0012 0 0
                CHANNELS 3 Zrotation Xrotation Yrotation
                JOINT RightForeArm
                {
                  OFFSET 28.7848 1.52588e-005 0
                  CHANNELS 3 Zrotation Xrotation Yrotation
                  JOINT RightHand
                  {
                    OFFSET 26.5688 1.52588e-005 0
                    CHANNELS 3 Zrotation Xrotation Yrotation
                    End Site
                    {
                      OFFSET 0 0 0
                    }
                  }
                }
              }
            }
            JOINT LeftShoulder
            {
              OFFSET 2.38034 -1.29275 -3.7523
              CHANNELS 3 Zrotation Xrotation Yrotation
              JOINT LeftArm
              {
                OFFSET 16.3182 6.10352e-005 0
                CHANNELS 3 Zrotation Xrotation Yrotation
                JOINT LeftForeArm
                {
                  OFFSET 27.0901 0 0
                  CHANNELS 3 Zrotation Xrotation Yrotation
                  JOINT LeftHand
                  {
                    OFFSET 24.5451 1.52588e-005 0
                    CHANNELS 3 Zrotation Xrotation Yrotation
                    End Site
                    {
                      OFFSET 0 0 0
                    }
                  }
                }
              }
            }
            JOINT Neck
            {
              OFFSET 5.0226 -0.0266342 0
              CHANNELS 3 Zrotation Xrotation Yrotation
              JOINT Head
              {
                OFFSET 6.69363 2.86102e-005 0
                CHANNELS 3 Zrotation Xrotation Yrotation
                End Site
                {
                  OFFSET 0 0 0
                }
              }
            }
          }
        }
      }
    }
  }
}
MOTION
Frames:	15
Frame Time:	0.0416667
-7.0438 98.0062 28.7205 -162.024 -86.4087 -155.886 -168.842 12.5981 107.898 -39.8058 29.6705 6.48475 80.6318 9.48552 -3.18713 21.305 -6.33961 8.19951 178.88 1.01424 103.06 -26.1876 10.8856 5.16474 75.8434 -3.0058 1.05135 18.54 -3.41708 4.63427 0.294721 7.80759 -90.8434 11.2571 0.194025 -1.69838 -0.414932 0.119099 -1.70528 -22.9424 0.695422 -1.56162 -2.92974 0.695425 -1.56162 84.6735 -51.1581 -108.322 16.875 -29.4353 -15.5364 -15.5148 -18.3885 -17.5947 -10.8073 -0.233856 -2.5821 -91.718 -47.9064 75.878 -21.094 33.7965 -15.8404 7.10047 -8.67573 -14.2944 0.0701399 -0.0390595 -1.95044 11.3211 -0.540618 -12.8722 8.8 2.49009 -0.30725 
-7.13433 98.021 28.2158 -148.832 -86.2173 -142.478 -168.814 13.0213 108.089 -39.8396 28.8996 6.30872 80.6778 9.47482 -3.39382 21.0051 -6.59375 8.44184 179.434 1.20735 103.583 -25.1947 10.7079 4.47279 75.271 -2.36105 1.36996 18.3568 -3.35896 4.39004 0.229502 7.78693 -90.8393 11.2975 0.0658127 -1.67772 -0.374511 -0.00808432 -1.679 -22.9017 0.566931 -1.58043 -2.88909 0.56693 -1.58043 83.9434 -51.8079 -109.191 15.5454 -29.8019 -16.1303 -15.0883 -18.0199 -16.9846 -11.4401 -0.256793 -2.47932 -91.1486 -47.59 76.6657 -21.0466 34.1971 -16.7001 7.44637 -7.27848 -13.7454 2.17597 0.0559829 -0.578486 10.8809 -0.871852 -14.7773 8.46807 2.44821 -1.53208 
-7.09801 97.9749 27.7208 -139.889 -86.211 -133.666 -168.896 13.6035 107.849 -39.9025 28.499 6.0753 80.5042 9.52644 -3.14772 21.5314 -6.40498 8.61654 179.404 1.71872 103.442 -24.7573 10.2329 4.22563 75.3023 -2.11434 0.772156 18.4887 -3.84674 5.69073 0.147822 7.78093 -90.8192 11.3085 -0.0874327 -1.62258 -0.363428 -0.15876 -1.61717 -22.8908 0.404195 -1.57387 -2.87812 0.40419 -1.57389 83.5648 -51.9132 -109.712 15.0962 -29.4705 -16.4066 -15.4355 -19.3621 -17.1677 -11.3087 -0.172309 -3.34096 -91.349 -47.6791 76.3817 -20.7344 34.7734 -17.1346 7.11898 -7.90377 -14.1003 0.817074 -0.017687 -1.6769 11.0655 -1.50349 -15.866 8.13907 2.08693 -1.8761 
-7.08175 97.9199 27.0943 -132.518 -85.5912 -126.317 -168.924 13.8721 107.746 -40.2067 27.8397 5.95041 80.3967 9.47337 -3.27691 21.9835 -6.53938 9.47149 179.39 2.2851 103.375 -25.2191 9.89764 4.01697 74.9526 -1.89278 1.39876 19.0753 -3.68718 5.61581 0.073506 7.81202 -90.7849 11.2458 -0.218897 -1.54103 -0.426055 -0.286505 -1.52991 -22.954 0.254305 -1.53558 -2.94133 0.254301 -1.53559 83.3972 -52.1403 -109.882 14.9934 -30.0163 -16.4196 -15.0973 -18.4673 -16.9865 -10.762 -0.110092 -3.96655 -90.9428 -47.183 76.8807 -21.284 34.5608 -16.9551 6.8045 -9.0351 -13.9242 1.69365 0.0039436 -1.63714 11.2417 -1.74898 -16.9888 7.97286 2.1606 -1.6889 
-6.91429 98.0087 26.7689 -126.881 -84.2936 -120.381 -168.708 13.3946 107.914 -40.1056 26.1586 5.80127 80.4875 9.30319 -3.97341 22.2741 -6.43316 9.57055 179.403 1.86497 103.33 -24.8769 8.48587 3.97333 74.5917 -2.07328 1.03538 19.1017 -3.86776 6.10203 0.116311 7.85466 -90.8174 11.1607 -0.14822 -1.61243 -0.511256 -0.219022 -1.60436 -23.0386 0.34317 -1.58246 -3.02596 0.343181 -1.58245 83.6432 -51.9256 -109.593 15.5402 -29.2545 -15.9327 -15.4729 -19.4558 -17.1908 -11.2678 -0.188499 -3.16964 -90.9259 -47.1514 76.899 -21.3167 34.6949 -16.8555 7.53086 -6.35576 -14.2781 -0.202021 -0.034806 -1.44553 10.3484 -1.52869 -17.7897 9.44406 2.4352 -1.42311 
-6.66309 98.0101 26.7073 -125.317 -84.2715 -118.628 -168.862 13.6157 107.85 -40.4534 26.1465 5.90702 80.6598 9.50241 -3.64999 21.8173 -6.57459 9.35365 179.391 1.8292 103.261 -24.4953 8.49689 4.01819 75.0421 -2.28572 0.727466 18.9966 -4.23955 6.99558 0.0752298 7.86012 -90.8582 11.1487 -0.248837 -1.6838 -0.523333 -0.322694 -1.67122 -23.0498 0.268635 -1.68076 -3.0372 0.268641 -1.68074 83.8315 -51.8229 -109.351 15.4353 -28.9526 -16.0085 -15.8068 -19.8204 -17.4526 -10.2232 -0.0632927 -4.46042 -91.2433 -47.6428 76.5345 -20.4878 35.1147 -17.241 7.42706 -6.89374 -14.4104 0.238783 -0.0175187 -1.15277 10.6291 -1.63999 -17.9429 9.37205 2.37011 -1.76887 
-6.20957 98.115 26.7027 -124.688 -84.1243 -118.038 -169.072 13.3752 107.37 -40.4281 25.6497 5.9674 80.5447 9.54526 -3.47393 22.0517 -6.61669 9.7362 178.977 1.5613 102.575 -24.1756 8.44947 4.29383 74.3817 -2.18239 1.88465 20.0279 -3.76468 6.37311 0.0741039 7.85889 -90.8927 11.1507 -0.267163 -1.75068 -0.521361 -0.343939 -1.73724 -23.0472 0.271259 -1.75005 -3.03451 0.271263 -1.75005 84.0656 -51.6306 -109.069 15.3538 -29.371 -15.9855 -15.6192 -18.7738 -17.5541 -10.4811 -0.0799965 -4.28876 -91.6879 -48.0174 75.9514 -20.372 35.1909 -17.4351 7.38756 -6.61148 -14.2732 0.0917557 -0.0157224 -0.890948 10.3179 -1.78832 -17.658 9.75009 2.03258 -2.45185 
-5.45557 98.2942 26.8624 -124.93 -83.9075 -118.471 -169.404 12.5328 106.472 -39.9481 24.7006 6.07252 80.5666 9.6211 -3.44346 22.2569 -6.627 10.0088 178.602 1.07454 101.67 -23.7512 8.09262 4.30997 73.4605 -2.08462 2.89358 21.12 -3.19251 5.48993 0.0872048 7.86595 -90.8906 11.1368 -0.24002 -1.74931 -0.535304 -0.316762 -1.73707 -23.0612 0.296729 -1.7406 -3.04851 0.296739 -1.74059 83.7629 -51.8996 -109.426 15.1843 -29.1544 -16.1296 -15.1677 -18.1758 -16.7519 -10.8601 -0.174024 -3.26302 -91.7663 -47.9535 75.8165 -19.9799 35.9986 -17.9336 7.19843 -6.56194 -13.9695 0.377634 0.00433499 -0.412104 9.89854 -1.84494 -18.2826 9.92095 2.09814 -2.03072 
-4.34503 98.6197 27.0988 -125.489 -83.5559 -119.613 -170.212 10.9242 104.679 -38.8248 22.7703 6.36189 80.482 9.59931 -3.70227 22.1558 -6.97382 10.7012 178.188 0.455092 100.419 -23.1751 7.05312 3.99137 73.4475 -2.34534 1.70027 20.8015 -3.78763 6.90847 0.129155 7.89018 -90.8613 11.0893 -0.14257 -1.70032 -0.582767 -0.217243 -1.69241 -23.1093 0.374972 -1.66458 -3.09662 0.374958 -1.6646 83.4413 -52.0003 -109.864 14.9976 -29.26 -15.9466 -15.8444 -19.622 -17.6519 -9.67028 -0.157738 -3.24987 -91.8075 -47.9285 75.7474 -20.2042 35.9626 -18.3373 7.19796 -6.49428 -13.9154 -0.152783 -0.0218227 -0.837628 9.82412 -1.83629 -18.0324 9.791 1.99837 -2.41627 
-2.9897 98.9901 27.419 -128.585 -83.0583 -123.573 -170.819 8.74404 102.598 -37.1781 21.3904 6.43504 80.1318 9.63718 -3.41186 20.5138 -7.08424 8.99282 177.613 -0.487188 98.6632 -22.6251 5.90435 3.52299 72.829 -2.44978 1.35045 21.8773 -3.49454 6.78231 0.158987 7.93209 -90.7979 11.0066 -0.0531532 -1.58247 -0.665306 -0.122739 -1.5786 -23.1931 0.42484 -1.52531 -3.18047 0.42484 -1.52532 83.3491 -52.1233 -109.958 14.9612 -29.5629 -16.2481 -15.2446 -18.1823 -17.0848 -10.3319 -0.0594907 -4.54169 -91.521 -47.5912 76.0978 -20.7809 36.187 -18.3669 7.48109 -6.04082 -14.7142 -0.12259 -0.0215804 -0.851741 9.17089 -2.00994 -19.2293 10.1258 2.04477 -1.87718 
-1.47579 99.5199 27.7468 -129.795 -82.6263 -125.608 -170.933 6.74342 100.684 -34.8941 20.816 6.08649 79.2588 9.52272 -2.54043 19.7789 -7.06668 8.1183 176.793 -1.56953 96.6664 -21.3098 4.68872 3.30697 71.9179 -2.71661 1.06005 22.6495 -3.32663 6.79701 0.174887 7.94748 -90.7575 10.9763 -0.00253871 -1.50678 -0.695516 -0.0688437 -1.50521 -23.2241 0.45037 -1.43791 -3.21146 0.450378 -1.43791 83.283 -52.1902 -110.033 14.7376 -29.445 -16.4595 -15.1154 -18.7644 -16.7765 -10.8503 -0.204953 -2.90529 -91.6942 -47.7353 75.8704 -21.1094 36.4164 -18.1188 7.60429 -5.67583 -14.9027 -0.582062 -0.0311478 -0.636127 9.15841 -2.0423 -19.611 10.5568 2.01362 -2.5422 
0.203855 100.122 28.0459 -131.995 -82.6105 -128.84 -170.772 4.74864 98.8444 -31.9344 21.2704 5.37405 78.0385 9.11907 -1.69424 18.437 -7.10386 6.73027 175.946 -2.4619 94.5582 -20.0692 3.9578 2.95064 70.6824 -2.83391 1.39104 23.3356 -2.77633 5.65827 0.138512 7.95145 -90.6372 10.9693 -0.0192565 -1.26583 -0.702245 -0.0749441 -1.26376 -23.2327 0.362041 -1.21312 -3.22012 0.362039 -1.21312 82.7102 -52.5241 -110.754 14.7575 -29.3546 -16.456 -14.9875 -18.452 -16.5205 -10.5145 -0.224915 -2.61141 -91.4465 -47.185 76.1091 -21.1813 37.0451 -18.2064 7.40471 -5.8365 -14.5305 -1.26489 -0.0560477 -1.02016 9.88213 -2.58766 -20.6742 10.5753 1.78075 -3.11539 
2.08793 100.594 28.2496 -134.098 -83.1562 -131.901 -171.486 3.21608 96.4797 -29.1591 21.3256 5.35696 77.0134 8.7153 -1.10734 17.3571 -7.20584 5.81561 174.868 -2.68493 92.3269 -18.9936 3.72536 2.87773 69.4328 -2.94348 1.91011 24.465 -2.32749 5.03286 0.103247 7.89913 -90.5196 11.0743 -0.0354495 -1.03055 -0.597086 -0.0807681 -1.028 -23.1291 0.275903 -0.993571 -3.11648 0.275897 -0.993569 82.4149 -52.5194 -111.184 15.6682 -29.1196 -16.3776 -15.0375 -18.5263 -16.5427 -10.7478 -0.146592 -3.55262 -91.3627 -47.3773 76.2857 -20.7942 36.9062 -18.1085 7.39974 -5.62544 -14.3058 -0.979902 -0.0472015 -0.933609 10.802 -3.24145 -20.9525 10.3772 1.29672 -3.86015 
3.95648 100.97 28.356 -135.55 -83.9174 -134.777 -173.138 1.22672 93.1792 -25.9271 20.2071 6.28572 75.7422 8.01678 -0.664877 16.531 -7.38523 5.35324 173.396 -2.07327 89.79 -18.839 3.06259 2.85926 68.705 -3.26418 1.80749 25.6272 -2.1166 5.1207 0.119372 7.81372 -90.3021 11.246 0.0969997 -0.610685 -0.425096 0.0700391 -0.614367 -22.9593 0.276052 -0.553296 -2.94662 0.276051 -0.553306 82.1166 -52.868 -111.495 16.1432 -29.8835 -16.6361 -14.6942 -18.9504 -16.0802 -10.9424 -0.308483 -1.78877 -91.1425 -46.574 76.4226 -21.3686 36.8433 -17.8914 7.30115 -6.25395 -14.5514 -2.15062 -0.081412 -1.5106 11.5068 -3.96555 -22.0925 10.8063 1.04357 -3.33874 
5.74185 101.245 28.5548 -140.7 -83.4962 -140.765 -174.111 -1.28244 90.5898 -22.6367 19.2168 7.4962 75.1052 7.21902 -0.662692 14.9054 -7.96205 4.93716 171.852 -2.27034 87.3833 -19.217 1.85325 2.62608 68.263 -3.65202 2.28444 26.8104 -1.49458 3.8901 0.156141 7.81174 -90.203 11.2504 0.216281 -0.425573 -0.420632 0.197346 -0.434681 -22.9555 0.33418 -0.340896 -2.94287 0.334186 -0.340896 82.8664 -51.8076 -110.771 17.736 -30.5755 -17.0976 -14.5542 -18.8457 -16.1234 -11.4221 -0.0531675 -4.63239 -91.2495 -47.153 76.4025 -22.1892 35.7694 -15.8481 7.25472 -7.8927 -15.6796 -0.956167 -0.0514745 -1.24403 12.0563 -3.87308 -20.472 10.2078 0.767374 -4.14669 
